<svg xmlns="http://www.w3.org/2000/svg" xmlns:xlink="http://www.w3.org/1999/xlink" width="375" height="667" viewBox="0 0 375 667">
  <defs>
    <style>
      .cls-1 {
        clip-path: url(#clip-iPhone_6_7_8_1);
      }

      .cls-2 {
        fill: url(#radial-gradient);
      }

      .cls-10, .cls-11, .cls-12, .cls-13, .cls-14, .cls-15, .cls-3, .cls-9 {
        fill: none;
      }

      .cls-4, .cls-7 {
        fill: #39b49f;
      }

      .cls-5 {
        fill: #343333;
      }

      .cls-6 {
        fill: #2dc9af;
      }

      .cls-7 {
        font-size: 45px;
        font-family: Bahnschrift;
        letter-spacing: 0.025em;
      }

      .cls-8 {
        opacity: 0.3;
      }

      .cls-10, .cls-11, .cls-12, .cls-13, .cls-14, .cls-15, .cls-9 {
        stroke: #2dc9af;
      }

      .cls-10, .cls-12, .cls-13, .cls-14, .cls-15, .cls-9 {
        stroke-miterlimit: 10;
      }

      .cls-9 {
        stroke-width: 0.5px;
      }

      .cls-11 {
        stroke-linecap: round;
        stroke-linejoin: round;
      }

      .cls-12 {
        opacity: 0.6;
      }

      .cls-13 {
        opacity: 0.4;
      }

      .cls-14 {
        opacity: 0.41;
      }

      .cls-15 {
        opacity: 0.39;
      }

      .cls-16 {
        fill: url(#linear-gradient);
      }

      .cls-17, .cls-19 {
        fill: #fff;
      }

      .cls-17 {
        font-size: 15px;
        font-family: SegoeUI, Segoe UI;
      }

      .cls-18 {
        fill: url(#linear-gradient-2);
      }

      .cls-20 {
        filter: url(#iurg3z70-2);
      }

      .cls-21 {
        filter: url(#iurg3z70);
      }

      .cls-22 {
        filter: url(#APOGEE_INNOVATION_CHALLENGE);
      }
    </style>
    <radialGradient id="radial-gradient" cx="1.235" cy="0.66" r="1.198" gradientTransform="matrix(-1.736, -0.218, 0.69, -1.736, 2.923, 2.074)" gradientUnits="objectBoundingBox">
      <stop offset="0" stop-color="#fff"/>
      <stop offset="1" stop-color="#c3eaf0"/>
    </radialGradient>
    <filter id="APOGEE_INNOVATION_CHALLENGE" x="32" y="173.5" width="289" height="175" filterUnits="userSpaceOnUse">
      <feOffset dx="-3" dy="1.5" input="SourceAlpha"/>
      <feGaussianBlur stdDeviation="3" result="blur"/>
      <feFlood flood-opacity="0.161"/>
      <feComposite operator="in" in2="blur"/>
      <feComposite in="SourceGraphic"/>
    </filter>
    <linearGradient id="linear-gradient" x1="1.123" y1="-2.392" x2="-0.028" y2="1.932" gradientUnits="objectBoundingBox">
      <stop offset="0" stop-color="#55bf91"/>
      <stop offset="1" stop-color="#2e8486"/>
    </linearGradient>
    <filter id="iurg3z70" x="12" y="520.6" width="350.865" height="131.4" filterUnits="userSpaceOnUse">
      <feOffset dy="16" input="SourceAlpha"/>
      <feGaussianBlur stdDeviation="16" result="blur-2"/>
      <feFlood flood-color="#22ffe1" flood-opacity="0.322"/>
      <feComposite operator="in" in2="blur-2"/>
      <feComposite in="SourceGraphic"/>
    </filter>
    <linearGradient id="linear-gradient-2" x1="1.123" y1="-2.392" x2="-0.058" y2="1.633" xlink:href="#linear-gradient"/>
    <filter id="iurg3z70-2" x="66" y="448" width="241.865" height="131.4" filterUnits="userSpaceOnUse">
      <feOffset dy="16" input="SourceAlpha"/>
      <feGaussianBlur stdDeviation="16" result="blur-3"/>
      <feFlood flood-color="#22ffe1" flood-opacity="0.322"/>
      <feComposite operator="in" in2="blur-3"/>
      <feComposite in="SourceGraphic"/>
    </filter>
    <clipPath id="clip-iPhone_6_7_8_1">
      <rect width="375" height="667"/>
    </clipPath>
  </defs>
  <g id="iPhone_6_7_8_1" data-name="iPhone 6/7/8 – 1" class="cls-1">
    <rect class="cls-19" width="375" height="667"/>
    <rect id="_089_Premium_White" data-name="089 Premium White" class="cls-2" width="375" height="667"/>
    <g id="Menu" transform="translate(-18 -19)">
      <rect id="Rectangle_175" data-name="Rectangle 175" class="cls-3" width="22.173" height="22.173" transform="translate(35 37)"/>
      <path id="Union_4" data-name="Union 4" class="cls-4" d="M0,23.813v-3.4H13.586v3.4ZM0,13.607v-3.4H27.173v3.4ZM0,3.4V0H27.173V3.4Z" transform="translate(35 38.18)"/>
    </g>
    <g id="apogeelogo" transform="translate(214 18)">
      <g id="Group_57" data-name="Group 57" transform="translate(33.443 2.884)">
        <path id="Path_65" data-name="Path 65" class="cls-5" d="M-10.266,77.758l-1.025-2.581h-4.54l-.976,2.581H-19.2L-14.611,66.3h2.2l4.589,11.458Zm-3.271-8.464-1.416,3.716h2.832Z" transform="translate(19.2 -66.191)"/>
        <path id="Path_66" data-name="Path 66" class="cls-5" d="M15.7,72.128a3.332,3.332,0,0,1-.928,1.239,3.5,3.5,0,0,1-1.416.774,5.612,5.612,0,0,1-1.66.258H9.892v3.406H7.5V66.4h4.394a4.691,4.691,0,0,1,1.758.31,4.487,4.487,0,0,1,1.269.774,3.213,3.213,0,0,1,.83,1.29,4.064,4.064,0,0,1,.293,1.6h0a4.006,4.006,0,0,1-.342,1.755Zm-2.05-1.7a1.589,1.589,0,0,0-.537-1.29A2.07,2.07,0,0,0,11.7,68.67H9.892v3.51h1.855a2.076,2.076,0,0,0,1.416-.516A1.753,1.753,0,0,0,13.651,70.425Z" transform="translate(5.535 -66.239)"/>
        <path id="Path_67" data-name="Path 67" class="cls-5" d="M38.633,74.254a6,6,0,0,1-1.221,1.858,5.612,5.612,0,0,1-6.4,1.29,5.122,5.122,0,0,1-1.806-1.29,4.567,4.567,0,0,1-1.172-1.858,5.686,5.686,0,0,1-.439-2.271h0a6.122,6.122,0,0,1,.439-2.323A6.542,6.542,0,0,1,29.211,67.8a6.37,6.37,0,0,1,1.806-1.239,5.722,5.722,0,0,1,2.295-.465,5.536,5.536,0,0,1,2.295.465,5.716,5.716,0,0,1,3.027,3.1,6.672,6.672,0,0,1,.391,2.271h0A7.162,7.162,0,0,1,38.633,74.254Zm-2.05-2.271a4.122,4.122,0,0,0-.244-1.394,3.593,3.593,0,0,0-.683-1.135,2.5,2.5,0,0,0-1.025-.774,3.077,3.077,0,0,0-1.318-.31,2.8,2.8,0,0,0-1.318.31,2.924,2.924,0,0,0-1.025.723,3.715,3.715,0,0,0-.635,1.135,3.361,3.361,0,0,0-.244,1.394h0a3.143,3.143,0,0,0,.244,1.342,2.825,2.825,0,0,0,.635,1.135,2.344,2.344,0,0,0,1.074.774,2.706,2.706,0,0,0,1.269.31,3.533,3.533,0,0,0,1.318-.258,3.918,3.918,0,0,0,1.025-.774,5.313,5.313,0,0,0,.683-1.135,4.122,4.122,0,0,0,.244-1.394Z" transform="translate(-4.751 -66.094)"/>
        <path id="Path_68" data-name="Path 68" class="cls-5" d="M62.651,77.294a5.822,5.822,0,0,1-2.588.568,5.4,5.4,0,0,1-2.295-.465,4.621,4.621,0,0,1-1.806-1.239,6.269,6.269,0,0,1-1.172-1.806,7.272,7.272,0,0,1-.391-2.374h0a7.217,7.217,0,0,1,.391-2.323A6.541,6.541,0,0,1,55.962,67.8a6.371,6.371,0,0,1,1.806-1.239,5.491,5.491,0,0,1,2.246-.465,5.272,5.272,0,0,1,1.318.1l1.123.258.928.516.879.671-1.513,1.91-.586-.516-.635-.361-.732-.206-.83-.1a2.522,2.522,0,0,0-1.221.31,2.36,2.36,0,0,0-.976.774,4,4,0,0,0-.683,1.084,4.665,4.665,0,0,0-.244,1.394h0a4.721,4.721,0,0,0,.244,1.445,4.323,4.323,0,0,0,.683,1.135,3.937,3.937,0,0,0,1.025.826,3.533,3.533,0,0,0,1.318.258,3.665,3.665,0,0,0,2.246-.723v-1.6H59.966V71.1h4.687v4.955A7.919,7.919,0,0,1,62.651,77.294Z" transform="translate(-18.468 -66.088)"/>
        <path id="Path_69" data-name="Path 69" class="cls-5" d="M80,77.806V66.4h8.1v2.219H82.343v2.323h5.077v2.219H82.343v2.426H88.2v2.219Z" transform="translate(-31.569 -66.239)"/>
        <path id="Path_70" data-name="Path 70" class="cls-5" d="M101.1,77.806V66.4h8.1v2.219h-5.761v2.323h5.077v2.219h-5.077v2.426H109.3v2.219Z" transform="translate(-42.368 -66.239)"/>
        <path id="Path_71" data-name="Path 71" class="cls-5" d="M133.48,68.731a4.948,4.948,0,0,0-1.074,1.187l-1.66-1.445a8.163,8.163,0,0,1,.781-.981,5.9,5.9,0,0,1,.879-.774,4.027,4.027,0,0,1,1.074-.465,4.538,4.538,0,0,1,1.269-.155,4.965,4.965,0,0,1,1.562.258,3.476,3.476,0,0,1,1.172.723,4.133,4.133,0,0,1,.732,1.084,4.776,4.776,0,0,1,.244,1.5,3.311,3.311,0,0,1-.2,1.239,4.29,4.29,0,0,1-.488,1.084,7.935,7.935,0,0,1-.879.981,14.634,14.634,0,0,1-1.269,1.084l-1.758,1.445h4.687V77.66H130.6V75.647l3.564-3.1.879-.774a3.6,3.6,0,0,0,.586-.671,1.8,1.8,0,0,0,.293-.619,1.559,1.559,0,0,0-.293-1.755,1.321,1.321,0,0,0-1.025-.361A1.739,1.739,0,0,0,133.48,68.731Z" transform="translate(-57.466 -66.093)"/>
        <path id="Path_72" data-name="Path 72" class="cls-5" d="M159.627,74.255a7.681,7.681,0,0,1-.976,1.91,5.076,5.076,0,0,1-1.513,1.239,4.243,4.243,0,0,1-2,.465,4.2,4.2,0,0,1-1.953-.465,4.8,4.8,0,0,1-2.441-3.1,8.055,8.055,0,0,1,0-4.645,5.514,5.514,0,0,1,.976-1.858,4.6,4.6,0,0,1,1.513-1.29,4.825,4.825,0,0,1,3.906,0,4.534,4.534,0,0,1,1.513,1.239,6.312,6.312,0,0,1,.976,1.91,8.148,8.148,0,0,1,.342,2.271A8.856,8.856,0,0,1,159.627,74.255Zm-2.246-3.716a6.488,6.488,0,0,0-.488-1.187,2.14,2.14,0,0,0-.781-.723,1.6,1.6,0,0,0-.976-.31,1.552,1.552,0,0,0-.928.31,2,2,0,0,0-.732.723,2.918,2.918,0,0,0-.488,1.135,6.916,6.916,0,0,0-.146,1.445,6.534,6.534,0,0,0,.146,1.445,4.255,4.255,0,0,0,.488,1.187,2,2,0,0,0,.732.723,1.69,1.69,0,0,0,.976.31,2.149,2.149,0,0,0,.976-.258,2.716,2.716,0,0,0,.732-.774,5.946,5.946,0,0,0,.488-1.135,6.916,6.916,0,0,0,.146-1.445A6.533,6.533,0,0,0,157.381,70.539Z" transform="translate(-67.599 -66.094)"/>
        <path id="Path_73" data-name="Path 73" class="cls-5" d="M175.525,66.3h1.611V77.758h-2.343V68.829l-1.9.465-.488-2.013Z" transform="translate(-78.859 -66.191)"/>
        <path id="Path_74" data-name="Path 74" class="cls-5" d="M194.9,74.149a4.8,4.8,0,0,1-.928,1.961,4.015,4.015,0,0,1-1.465,1.29,4.1,4.1,0,0,1-2,.465,4.654,4.654,0,0,1-2-.413,6.069,6.069,0,0,1-1.562-.929l1.269-1.91a5.713,5.713,0,0,0,1.123.723,3.072,3.072,0,0,0,1.221.258,1.767,1.767,0,0,0,1.513-.723,3.684,3.684,0,0,0,.684-1.91,2.51,2.51,0,0,1-.928.568,3.3,3.3,0,0,1-1.269.258,4.733,4.733,0,0,1-1.562-.258,4.141,4.141,0,0,1-1.221-.723,3.26,3.26,0,0,1-.781-1.187,3.954,3.954,0,0,1-.293-1.548,4.39,4.39,0,0,1,.293-1.6,4.324,4.324,0,0,1,.879-1.239,3.8,3.8,0,0,1,1.269-.877,4.5,4.5,0,0,1,1.66-.258h.976l.83.206.683.413.635.516a3.974,3.974,0,0,1,.928,1.652,6.176,6.176,0,0,1,.244,1.187,6.976,6.976,0,0,1,.1,1.5A10.229,10.229,0,0,1,194.9,74.149Zm-2.636-5.419a1.7,1.7,0,0,0-1.367-.516,1.931,1.931,0,0,0-1.367.465,1.881,1.881,0,0,0,0,2.529,2.069,2.069,0,0,0,1.416.465,1.931,1.931,0,0,0,1.367-.465,1.753,1.753,0,0,0,.488-1.239A1.586,1.586,0,0,0,192.265,68.73Z" transform="translate(-86.177 -66.092)"/>
      </g>
      <g id="Group_58" data-name="Group 58">
        <rect id="Rectangle_44" data-name="Rectangle 44" class="cls-6" width="7.567" height="3.009" transform="translate(19.089 9.342)"/>
        <rect id="Rectangle_45" data-name="Rectangle 45" class="cls-6" width="7.567" height="3.009" transform="translate(19.089 13.987)"/>
        <rect id="Rectangle_46" data-name="Rectangle 46" class="cls-6" width="7.567" height="3.009" transform="translate(9.715 13.987)"/>
        <rect id="Rectangle_47" data-name="Rectangle 47" class="cls-6" width="7.567" height="3.009" transform="translate(0 13.987)"/>
        <rect id="Rectangle_48" data-name="Rectangle 48" class="cls-6" width="7.567" height="3.009" transform="translate(14.402 18.632)"/>
        <rect id="Rectangle_49" data-name="Rectangle 49" class="cls-6" width="7.567" height="3.009" transform="translate(4.98 18.632)"/>
        <rect id="Rectangle_50" data-name="Rectangle 50" class="cls-6" width="7.567" height="3.009" transform="translate(14.402 23.329)"/>
        <rect id="Rectangle_51" data-name="Rectangle 51" class="cls-6" width="7.567" height="3.009" transform="translate(9.715 9.342)"/>
        <rect id="Rectangle_52" data-name="Rectangle 52" class="cls-6" width="2.832" height="3.009" transform="translate(23.825 4.645)"/>
        <rect id="Rectangle_53" data-name="Rectangle 53" class="cls-6" width="2.832" height="3.009" transform="translate(23.825)"/>
        <rect id="Rectangle_54" data-name="Rectangle 54" class="cls-6" width="2.832" height="3.009" transform="translate(0 18.632)"/>
        <rect id="Rectangle_55" data-name="Rectangle 55" class="cls-6" width="2.832" height="3.009" transform="translate(4.687 9.342)"/>
        <rect id="Rectangle_56" data-name="Rectangle 56" class="cls-6" width="2.832" height="3.009" transform="translate(23.825 18.632)"/>
        <rect id="Rectangle_57" data-name="Rectangle 57" class="cls-6" width="2.832" height="3.009" transform="translate(23.825 23.329)"/>
      </g>
      <g id="Group_59" data-name="Group 59" transform="translate(33.98 17.239)">
        <path id="Path_75" data-name="Path 75" class="cls-5" d="M-16.412,98.591a3.459,3.459,0,0,0-.791.781l-.791-.671.475-.614a2.21,2.21,0,0,1,.527-.5l.635-.279.844-.111a2.36,2.36,0,0,1,.9.167,1.833,1.833,0,0,1,.683.446,1.4,1.4,0,0,1,.422.671,1.931,1.931,0,0,1,.158.837,1.465,1.465,0,0,1-.105.723,1.941,1.941,0,0,1-.316.671,1.918,1.918,0,0,1-.527.614l-.791.723-1.371,1.227h3.218v1.06H-18.1v-.948l2.321-2.064.58-.557.369-.446a3.37,3.37,0,0,0,.211-.446,1.293,1.293,0,0,0,.053-.446,1.447,1.447,0,0,0-.263-.834,1.272,1.272,0,0,0-.791-.279A1.272,1.272,0,0,0-16.412,98.591Z" transform="translate(18.1 -95.579)"/>
        <path id="Path_76" data-name="Path 76" class="cls-5" d="M-1.245,103.222a1.752,1.752,0,0,1-.58.671,1.8,1.8,0,0,1-.791.39,2.909,2.909,0,0,1-1,.167,2.708,2.708,0,0,1-1-.167,3.029,3.029,0,0,1-.844-.39,1.6,1.6,0,0,1-.527-.671,1.92,1.92,0,0,1-.211-.781,1.564,1.564,0,0,1,.316-1.06,2.274,2.274,0,0,1,.9-.671,2.522,2.522,0,0,1-.683-.614,1.569,1.569,0,0,1-.264-1,1.811,1.811,0,0,1,.158-.723,1.713,1.713,0,0,1,.475-.614l.739-.39a2.409,2.409,0,0,1,.948-.167,2.36,2.36,0,0,1,.9.167l.739.39a2.849,2.849,0,0,1,.527.614,1.811,1.811,0,0,1,.158.723,2.037,2.037,0,0,1-.264,1,2.827,2.827,0,0,1-.737.616,2.274,2.274,0,0,1,.9.671,1.5,1.5,0,0,1,.316,1,1.931,1.931,0,0,1-.158.837Zm-1.108-1.338-.264-.334-.475-.221H-4.2l-.422.223-.316.334a1.4,1.4,0,0,0-.105.446.91.91,0,0,0,.369.781,1.87,1.87,0,0,0,1.055.279,1.669,1.669,0,0,0,1-.279.91.91,0,0,0,.369-.781.7.7,0,0,0-.105-.446Zm-.422-3.346a1.068,1.068,0,0,0-.844-.279,1.168,1.168,0,0,0-.9.279.8.8,0,0,0-.316.671.852.852,0,0,0,.369.781,1.068,1.068,0,0,0,.844.279,1.119,1.119,0,0,0,.844-.279.914.914,0,0,0,.316-.723.914.914,0,0,0-.316-.723Z" transform="translate(12.481 -95.581)"/>
        <path id="Path_77" data-name="Path 77" class="cls-5" d="M6.945,101.048c0,.138.033.277.1.31a.377.377,0,0,0,.293.1.969.969,0,0,0,.425-.1v.622l-.293.1-.36.069-.36-.069a.646.646,0,0,1-.293-.173.768.768,0,0,1-.164-.277.982.982,0,0,1-.065-.45V99.421H5.8V98.8h.425v-.9h.72v.9H7.8v.622h-.85Z" transform="translate(7.19 -97.554)"/>
        <path id="Path_78" data-name="Path 78" class="cls-5" d="M15.62,101.432H14.9V96.9h.72v1.764l.164-.242.229-.173a.642.642,0,0,1,.262-.138H16.6a.955.955,0,0,1,.818.346,1.328,1.328,0,0,1,.293.934v2.075h-.718V99.6a.86.86,0,0,0-.2-.588.573.573,0,0,0-.491-.206.636.636,0,0,0-.491.206.86.86,0,0,0-.2.588Z" transform="translate(1.067 -96.9)"/>
        <path id="Path_79" data-name="Path 79" class="cls-5" d="M36.823,102.7h-.052l-2.11-3.29v5.019H33.5V97.4h1.266l2,3.346L38.828,97.4h1.266v7.027h-1.16V99.408Z" transform="translate(-12.125 -95.67)"/>
        <path id="Path_80" data-name="Path 80" class="cls-5" d="M52.631,105.734v-.671a2.063,2.063,0,0,1-1.636.781l-.683-.111-.58-.279a1.285,1.285,0,0,1-.369-.557,1.4,1.4,0,0,1-.158-.671h0a1.635,1.635,0,0,1,.158-.723,1.383,1.383,0,0,1,.422-.558,1.691,1.691,0,0,1,.635-.279,2.053,2.053,0,0,1,.844-.111H52l.635.167v-.167a1.15,1.15,0,0,0-.316-.837,1.471,1.471,0,0,0-.9-.279,1.7,1.7,0,0,0-.791.111l-.683.223-.316-1,.844-.279a3.4,3.4,0,0,1,1.108-.111,1.875,1.875,0,0,1,1.622.544,2.12,2.12,0,0,1,.593,1.686v3.123Zm.053-2.231-.527-.167h-.635a1.464,1.464,0,0,0-.9.223.8.8,0,0,0-.264.614h0a.567.567,0,0,0,.264.557,1.421,1.421,0,0,0,.684.223l.527-.111.422-.223.316-.334a1.4,1.4,0,0,0,.105-.446Z" transform="translate(-19.745 -96.977)"/>
        <path id="Path_81" data-name="Path 81" class="cls-5" d="M62.46,105.709H61.3v-5.3h1.16v1.171a2.5,2.5,0,0,1,.683-.948,1.876,1.876,0,0,1,1.108-.334v1.283H64.2a1.412,1.412,0,0,0-.683.167,1,1,0,0,0-.58.39,2.216,2.216,0,0,0-.317.614,2.755,2.755,0,0,0-.158.948Z" transform="translate(-25.608 -96.952)"/>
        <path id="Path_82" data-name="Path 82" class="cls-5" d="M72.649,105.537a2.067,2.067,0,0,1-1.215.28,2.591,2.591,0,0,1-2.426-1.673,2.758,2.758,0,0,1,0-2.119,2.478,2.478,0,0,1,.527-.892,3.008,3.008,0,0,1,.844-.614,2.264,2.264,0,0,1,1.055-.225,2.366,2.366,0,0,1,2,.892l-.683.837-.58-.5a1.611,1.611,0,0,0-.739-.167l-.58.111a1.172,1.172,0,0,0-.475.39l-.316.557a2.111,2.111,0,0,0-.105.614,2.994,2.994,0,0,0,.105.723,3.928,3.928,0,0,0,.316.5l.475.39.635.111a1.612,1.612,0,0,0,.739-.167l.58-.5.684.723A2.567,2.567,0,0,1,72.649,105.537Z" transform="translate(-29.266 -96.948)"/>
        <path id="Path_83" data-name="Path 83" class="cls-5" d="M81.66,104.205H80.5V96.9h1.16v2.844l.316-.39c.053-.111.211-.167.316-.279l.422-.223h.527a1.54,1.54,0,0,1,1.318.557,2.141,2.141,0,0,1,.475,1.506v3.346H83.876V101.25a1.684,1.684,0,0,0-.264-.948,1.026,1.026,0,0,0-.791-.334,1.075,1.075,0,0,0-.844.334,1.386,1.386,0,0,0-.316.948Z" transform="translate(-34.951 -95.449)"/>
        <path id="Path_84" data-name="Path 84" class="cls-5" d="M92.2,104.627V103.4h2.849v1.227Z" transform="translate(-39.073 -98.252)"/>
        <path id="Path_85" data-name="Path 85" class="cls-5" d="M100.471,98.46V97.4H104.9v.948l-1.9,2.008a1.612,1.612,0,0,1,.739.167,1.826,1.826,0,0,1,.635.39,1.206,1.206,0,0,1,.475.557,1.931,1.931,0,0,1,.158.837,2.4,2.4,0,0,1-.158.892,3.553,3.553,0,0,1-.527.723,1.929,1.929,0,0,1-.739.446,2.409,2.409,0,0,1-.95.167,3.072,3.072,0,0,1-1.477-.334,2.829,2.829,0,0,1-1.055-.892l.791-.781a4.218,4.218,0,0,0,.791.671,1.914,1.914,0,0,0,1,.223,1.272,1.272,0,0,0,.791-.279.91.91,0,0,0,.369-.781,1.078,1.078,0,0,0-.422-.837,2.269,2.269,0,0,0-1.16-.279h-.527l-.211-.781,1.846-2.008Z" transform="translate(-39.342 -95.67)"/>
        <path id="Path_86" data-name="Path 86" class="cls-5" d="M113.593,97.3h.843v7.082h-1.16v-5.8l-1.213.334-.264-1Z" transform="translate(-44.988 -95.626)"/>
        <path id="Path_87" data-name="Path 87" class="cls-5" d="M122.565,103.405a.812.812,0,0,1-.244.334.93.93,0,0,1-.421.223l-.492.074a1.74,1.74,0,0,1-.737-.149,2.381,2.381,0,0,1-.667-.371l.316-.557.562.334.562.111a.674.674,0,0,0,.386-.111.455.455,0,0,0,.141-.3h0a.405.405,0,0,0-.07-.186l-.176-.111-.244-.111-.281-.074-.351-.149-.351-.186a.988.988,0,0,1-.244-.3.775.775,0,0,1-.105-.408h0a1.048,1.048,0,0,1,.105-.445l.244-.334.386-.223.456-.074a2.1,2.1,0,0,1,.667.111l.6.3-.316.594-.492-.258a1.068,1.068,0,0,0-.456-.074l-.351.074a.376.376,0,0,0-.141.258h0a.3.3,0,0,0,.07.149l.176.111.244.111.281.111.386.149.316.186a.988.988,0,0,1,.244.3.7.7,0,0,1,.105.408h0A1.089,1.089,0,0,1,122.565,103.405Z" transform="translate(-48.974 -99.471)"/>
        <path id="Path_88" data-name="Path 88" class="cls-5" d="M130.894,101.278c0,.149.035.3.105.334a.407.407,0,0,0,.316.111,1.173,1.173,0,0,0,.492-.111v.668l-.316.111-.386.074-.386-.074a.451.451,0,0,1-.316-.186.888.888,0,0,1-.211-.3,2,2,0,0,1-.07-.483V99.534H129.7v-.668h.421V97.9h.772v.965h.913v.668h-.913Z" transform="translate(-55.341 -97.9)"/>
        <path id="Path_89" data-name="Path 89" class="cls-5" d="M148.571,102.7h0l-2.11-3.29v5.019H145.3V97.4h1.266l2.005,3.346,2.057-3.346h1.266v7.027h-1.213V99.408Z" transform="translate(-65.965 -95.67)"/>
        <path id="Path_90" data-name="Path 90" class="cls-5" d="M164.428,105.742v-.671l-.683.557a1.714,1.714,0,0,1-.95.223l-.683-.111a1.441,1.441,0,0,1-.58-.279,2.159,2.159,0,0,1-.422-.558,1.348,1.348,0,0,1-.105-.671h0a1.583,1.583,0,0,1,.105-.723,1.535,1.535,0,0,1,.475-.558,1.691,1.691,0,0,1,.635-.279,1.954,1.954,0,0,1,.791-.111h.791l.635.167v-.167a1.15,1.15,0,0,0-.316-.837,1.519,1.519,0,0,0-.95-.279,1.6,1.6,0,0,0-.739.111l-.684.223-.316-1,.844-.279a3.1,3.1,0,0,1,1.055-.111,2.137,2.137,0,0,1,1.688.557,2.313,2.313,0,0,1,.527,1.673v3.123Zm0-2.231-.527-.167h-.635a1.263,1.263,0,0,0-.844.223.734.734,0,0,0-.316.614h0a.619.619,0,0,0,.316.557,1.268,1.268,0,0,0,.683.223l.527-.111.422-.223.264-.334a.7.7,0,0,0,.105-.446Z" transform="translate(-73.972 -96.985)"/>
        <path id="Path_91" data-name="Path 91" class="cls-5" d="M174.26,105.707H173.1v-5.3h1.16v1.171a1.8,1.8,0,0,1,1.794-1.283v1.283H176a1.611,1.611,0,0,0-.739.167.9.9,0,0,0-.528.39,2.307,2.307,0,0,0-.369.614,5.176,5.176,0,0,0-.105.948Z" transform="translate(-79.69 -96.95)"/>
        <path id="Path_92" data-name="Path 92" class="cls-5" d="M184.4,105.538a1.966,1.966,0,0,1-1.213.279,2.064,2.064,0,0,1-1-.223,2.306,2.306,0,0,1-.844-.557,3.19,3.19,0,0,1-.58-.892,3.647,3.647,0,0,1,0-2.119,2.881,2.881,0,0,1,1.424-1.506,2.113,2.113,0,0,1,1.055-.223,2.412,2.412,0,0,1,1.16.223,3.241,3.241,0,0,1,.844.671l-.735.835a2.567,2.567,0,0,0-.58-.5,1.31,1.31,0,0,0-.739-.167l-.58.111a1.451,1.451,0,0,0-.422.39,1.185,1.185,0,0,0-.316.557,2.111,2.111,0,0,0-.105.614,3,3,0,0,0,.105.723,1.009,1.009,0,0,0,.316.5,1.172,1.172,0,0,0,.475.39l.635.111a1.412,1.412,0,0,0,.684-.167,1.658,1.658,0,0,0,.58-.5l.739.723a2.287,2.287,0,0,1-.9.723Z" transform="translate(-83.234 -96.949)"/>
        <path id="Path_93" data-name="Path 93" class="cls-5" d="M193.46,104.205H192.3V96.9h1.16v2.844l.264-.39.369-.279.422-.223h.527a1.54,1.54,0,0,1,1.318.557,2.141,2.141,0,0,1,.475,1.506v3.346h-1.16V101.25a1.684,1.684,0,0,0-.264-.948,1.075,1.075,0,0,0-.844-.334,1.026,1.026,0,0,0-.791.334,1.386,1.386,0,0,0-.316.948Z" transform="translate(-88.762 -95.449)"/>
      </g>
    </g>
    <g class="cls-22" transform="matrix(1, 0, 0, 1, 0, 0)">
      <text id="APOGEE_INNOVATION_CHALLENGE-2" data-name="APOGEE
INNOVATION 
CHALLENGE" class="cls-7" transform="translate(44 217)"><tspan x="0" y="0">APOGEE</tspan><tspan x="0" y="56">INNOVATION </tspan><tspan x="0" y="112">CHALLENGE</tspan></text>
    </g>
    <g id="Group_1" data-name="Group 1" class="cls-8" transform="translate(2006.284 566.414) rotate(152)">
      <path id="Path_119" data-name="Path 119" class="cls-9" d="M765.776,484.462l-354.139,19.35,27.838-226.818Z" transform="translate(963.1 642.625)"/>
      <path id="Path_120" data-name="Path 120" class="cls-10" d="M927.91,264.584,798.741,767.9,455.774,485.062Z" transform="translate(1077.379 610.493)"/>
      <path id="Path_121" data-name="Path 121" class="cls-10" d="M948.554,120.009c-6.683,0-416.459,104.671-416.459,104.671L730.3,638.914l425.364-369.692Z" transform="translate(1274.987 236.164)"/>
      <path id="Path_122" data-name="Path 122" class="cls-10" d="M441.518,354.061l325.1-204.889L964.822,563.4Z" transform="translate(1040.467 311.673)"/>
      <path id="Path_123" data-name="Path 123" class="cls-11" d="M492.686,636.079,964.822,415.6l-523.3-209.343Z" transform="translate(1040.467 459.477)"/>
      <path id="Path_124" data-name="Path 124" class="cls-9" d="M321.35,616.684l324.057-276.5,45.924,205.23Z" transform="translate(729.33 806.248)"/>
      <path id="Path_125" data-name="Path 125" class="cls-10" d="M463.338,301.813,321.35,716.045,691.331,644.78Z" transform="translate(729.33 706.887)"/>
      <path id="Path_126" data-name="Path 126" class="cls-10" d="M904.044,719.706c-11.137,0-584.124,234.237-582.692,227.557s0-530.039,0-530.039Z" transform="translate(729.329 1005.709)"/>
      <path id="Path_127" data-name="Path 127" class="cls-9" d="M912.113,538.511,680.5,264.584,551.33,767.9Z" transform="translate(1324.79 610.493)"/>
      <path id="Path_128" data-name="Path 128" class="cls-11" d="M1012.686,161.582,587.319,531.273,939.193,689.394Z" transform="translate(1417.97 343.804)"/>
      <path id="Path_129" data-name="Path 129" class="cls-10" d="M551.33,653.832l461,378.6,20.043-723.793Z" transform="translate(1324.79 724.559)"/>
      <path id="Path_130" data-name="Path 130" class="cls-11" d="M424.432,582.124l455.459,26.725L536.925,326.012Z" transform="translate(996.229 769.543)"/>
      <path id="Path_131" data-name="Path 131" class="cls-10" d="M1048.984,669.7,483.7,751.839,726.445,404.815Z" transform="translate(1149.675 973.577)"/>
      <path id="Path_132" data-name="Path 132" class="cls-9" d="M498.8,206.257,419.393,460.142,786.039,506.91Z" transform="translate(983.182 459.477)"/>
      <path id="Path_133" data-name="Path 133" class="cls-11" d="M766.614,149.172l53.449,260.565L441.518,354.061Z" transform="translate(1040.467 311.673)"/>
      <path id="Path_134" data-name="Path 134" class="cls-10" d="M728.754,506.91l91.309-244.976L441.518,206.257Z" transform="translate(1040.467 459.477)"/>
      <path id="Path_135" data-name="Path 135" class="cls-11" d="M910,120.009,546.987,485.246,691.745,638.912Z" transform="translate(1313.544 236.165)"/>
      <path id="Path_136" data-name="Path 136" class="cls-10" d="M437.479,709.042,743.726,484.109,419.393,276.993Z" transform="translate(983.182 642.625)"/>
      <path id="Path_137" data-name="Path 137" class="cls-9" d="M526.175,733.724,691.331,397.369,321.35,468.635Z" transform="translate(729.33 954.298)"/>
      <path id="Path_138" data-name="Path 138" class="cls-10" d="M730.679,334.7,879.891,586.356,424.432,559.632Z" transform="translate(996.229 792.035)"/>
      <path id="Path_139" data-name="Path 139" class="cls-10" d="M675.036,404.815,503.552,1061.8,997.574,669.7Z" transform="translate(1201.084 973.577)"/>
      <path id="Path_140" data-name="Path 140" class="cls-10" d="M996.014,344.007S886.889,889.634,880.206,889.634s-200.434,51.221-200.434,51.221Z" transform="translate(1657.348 816.135)"/>
      <path id="Path_141" data-name="Path 141" class="cls-9" d="M509.757,450.372l630.256-93.536L552.071,290.024Z" transform="translate(1217.15 676.363)"/>
      <path id="Path_142" data-name="Path 142" class="cls-9" d="M1068.309,435.581l-296.2-126.942L651.85,424.445Z" transform="translate(1585.053 724.559)"/>
      <path id="Path_143" data-name="Path 143" class="cls-11" d="M758.849,161.582,981.554,816.336l-296.2-126.942Z" transform="translate(1671.807 343.804)"/>
      <path id="Path_144" data-name="Path 144" class="cls-12" d="M255.976,199,544.2,54.237,698.11,406.111,694.6,599.865H921.92" transform="translate(560.066 65.869)"/>
      <path id="Path_145" data-name="Path 145" class="cls-13" d="M589.208,48.032,470.47,431.085l396.007-320.7Z" transform="translate(1115.428 49.803)"/>
      <path id="Path_146" data-name="Path 146" class="cls-14" d="M383.8,120.106,588.266,28.8,451.012,356.174Z" transform="translate(891.014 0)"/>
      <path id="Path_147" data-name="Path 147" class="cls-14" d="M180.495,180.283,297.173,236.1,101.757,298.18Z" transform="translate(160.767 392.225)"/>
      <path id="Path_148" data-name="Path 148" class="cls-14" d="M262.181,269.7,462.247,113.8,616.537,269.7Z" transform="translate(576.132 220.099)"/>
      <path id="Path_149" data-name="Path 149" class="cls-14" d="M189.811,142.526,335.764,28.8,448.323,142.526Z" transform="translate(388.753 0)"/>
      <path id="Path_150" data-name="Path 150" class="cls-14" d="M171.04,293.217,146.912,132.563l159.215-52.3Z" transform="translate(277.681 133.254)"/>
      <path id="Path_151" data-name="Path 151" class="cls-10" d="M253.494,363.01,463.1,203.775,627.1,330.718Z" transform="translate(553.64 453.05)"/>
      <path id="Path_152" data-name="Path 152" class="cls-10" d="M329.767,508.929,290.014,305.154l142.08-3.341Z" transform="translate(648.195 706.887)"/>
      <path id="Path_153" data-name="Path 153" class="cls-14" d="M218.314,214.944,198.27,301.8l82.4-43.428Z" transform="translate(410.656 481.969)"/>
      <path id="Path_154" data-name="Path 154" class="cls-14" d="M201.121,401.219,113.234,416.1l71.761,59.383Z" transform="translate(190.481 964.267)"/>
      <path id="Path_155" data-name="Path 155" class="cls-14" d="M143.067,157.239,55.179,172.115,126.94,231.5Z" transform="translate(40.167 332.558)"/>
      <path id="Path_156" data-name="Path 156" class="cls-14" d="M173.451,630.443l97.991-267.2,140.3,181.307Z" transform="translate(346.393 865.937)"/>
      <path id="Path_157" data-name="Path 157" class="cls-14" d="M412.975,569.362,39.665,502.178l215.6-215.534Z" transform="translate(0 667.612)"/>
      <path id="Path_158" data-name="Path 158" class="cls-15" d="M683.4,808.423,511.121,587.944l-24.5,250.543L324.048,365.239l-142.531-99.1" transform="translate(367.279 614.51)"/>
      <path id="Path_159" data-name="Path 159" class="cls-11" d="M551.33,562.258l777.242-218.251-454.7,483.138Z" transform="translate(1324.79 816.134)"/>
      <path id="Path_160" data-name="Path 160" class="cls-10" d="M880.206,716.044,713.054,411.051,679.772,767.266Z" transform="translate(1657.348 989.724)"/>
      <path id="Path_161" data-name="Path 161" class="cls-10" d="M857.554,592.329,611.109,809.923,719.091,478.616Z" transform="translate(1479.567 1164.662)"/>
      <path id="Path_162" data-name="Path 162" class="cls-9" d="M941.978,411.051,591.356,625.234,908.7,767.266Z" transform="translate(1428.425 989.724)"/>
      <path id="Path_163" data-name="Path 163" class="cls-10" d="M972,344.007,689.045,584.642,856.2,889.635Z" transform="translate(1681.358 816.134)"/>
      <path id="Path_164" data-name="Path 164" class="cls-11" d="M470.47,233.269l221.183-20.043-23.18-88.793Z" transform="translate(1115.428 247.619)"/>
      <path id="Path_165" data-name="Path 165" class="cls-11" d="M424.432,397.369l455.459,26.725L708.408,1081.074Z" transform="translate(996.229 954.298)"/>
      <path id="Path_166" data-name="Path 166" class="cls-9" d="M360.735,366.627l182.7,137.185,27.838-226.818Z" transform="translate(831.304 642.625)"/>
      <path id="Path_167" data-name="Path 167" class="cls-11" d="M360.735,366.627l341.115,86.3L571.271,276.993Z" transform="translate(831.304 642.625)"/>
      <path id="Path_168" data-name="Path 168" class="cls-9" d="M510.306,334.8l508.027,21.918L837.941,630.643Z" transform="translate(1218.57 792.289)"/>
      <path id="Path_169" data-name="Path 169" class="cls-9" d="M694.991,641.381l36.73-192.026L551.33,404.815Z" transform="translate(1324.79 973.577)"/>
      <path id="Path_170" data-name="Path 170" class="cls-9" d="M941.978,411.051,628.087,433.208l-36.73,192.026Z" transform="translate(1428.425 989.724)"/>
      <path id="Path_171" data-name="Path 171" class="cls-9" d="M781.982,340.9l133.5,251.771L601.59,614.832Z" transform="translate(1454.921 808.101)"/>
      <path id="Path_172" data-name="Path 172" class="cls-9" d="M532.095,224.681,772.874,403.8l175.68-283.787Z" transform="translate(1274.986 236.165)"/>
      <path id="Path_173" data-name="Path 173" class="cls-9" d="M981.976,161.582,599.18,296.156l309.3,393.237Z" transform="translate(1448.681 343.804)"/>
      <path id="Path_174" data-name="Path 174" class="cls-9" d="M546.987,280.526l187.33-81.45L691.745,434.193Z" transform="translate(1313.544 440.884)"/>
      <path id="Path_175" data-name="Path 175" class="cls-9" d="M543.573,397.369,378.417,733.724l377.866,37.394Z" transform="translate(877.088 954.298)"/>
      <path id="Path_176" data-name="Path 176" class="cls-9" d="M321.35,756.032,526.175,491.083l377.866,37.394Z" transform="translate(729.33 1196.939)"/>
      <path id="Path_177" data-name="Path 177" class="cls-9" d="M870.107,641.381,483.7,751.839,726.445,404.815Z" transform="translate(1149.675 973.577)"/>
    </g>
    <g id="Group_2" data-name="Group 2" transform="translate(-572.2 -253.2)">
      <g class="cls-21" transform="matrix(1, 0, 0, 1, 572.2, 253.2)">
        <rect id="iurg3z70-3" data-name="iurg3z70" class="cls-16" width="254.865" height="35.4" rx="17.7" transform="translate(60 552.6)"/>
      </g>
      <text id="VIEW_PROBLEM_STATEMENTS" data-name="VIEW PROBLEM STATEMENTS" class="cls-17" transform="translate(756.517 828.865)"><tspan x="-97.518" y="0">VIEW PROBLEM STATEMENTS</tspan></text>
    </g>
    <g id="Group_3" data-name="Group 3" transform="translate(-573.265 -325.2)">
      <g class="cls-20" transform="matrix(1, 0, 0, 1, 573.26, 325.2)">
        <rect id="iurg3z70-4" data-name="iurg3z70" class="cls-18" width="145.865" height="35.4" rx="17.7" transform="translate(114 480)"/>
      </g>
      <text id="REGISTER" class="cls-17" transform="translate(760.265 828.2)"><tspan x="-31.615" y="0">REGISTER</tspan></text>
    </g>
  </g>
</svg>
