<svg xmlns="http://www.w3.org/2000/svg" width="331" height="97.092" viewBox="0 0 331 97.092">
  <g id="Group_3" data-name="Group 3" transform="translate(-22 -40.1)">
    <g id="apogeelogo" transform="translate(22 76)">
      <g id="Group_57" data-name="Group 57" transform="translate(77.699 6.701)">
        <path id="Path_65" data-name="Path 65" d="M1.557,92.921l-2.382-6H-11.373l-2.269,6H-19.2L-8.538,66.3h5.1L7.229,92.921Zm-7.6-19.666-3.289,8.634h6.579Z" transform="translate(19.2 -66.046)" fill="#343333"/>
        <path id="Path_66" data-name="Path 66" d="M26.556,79.711A7.741,7.741,0,0,1,24.4,82.589a8.132,8.132,0,0,1-3.289,1.8,13.039,13.039,0,0,1-3.857.6h-4.2V92.9H7.5V66.4H17.709a10.9,10.9,0,0,1,4.083.719,10.425,10.425,0,0,1,2.949,1.8,7.466,7.466,0,0,1,1.928,3,9.443,9.443,0,0,1,.681,3.717h0a9.308,9.308,0,0,1-.794,4.077Zm-4.764-3.957a3.691,3.691,0,0,0-1.248-3,4.808,4.808,0,0,0-3.289-1.079h-4.2v8.154h4.31a4.823,4.823,0,0,0,3.289-1.2A4.073,4.073,0,0,0,21.792,75.754Z" transform="translate(22.786 -66.027)" fill="#343333"/>
        <path id="Path_67" data-name="Path 67" d="M53.235,85.047A13.951,13.951,0,0,1,50.4,89.364a13.04,13.04,0,0,1-14.859,3,11.9,11.9,0,0,1-4.2-3,10.611,10.611,0,0,1-2.722-4.317A13.212,13.212,0,0,1,27.6,79.77h0a14.224,14.224,0,0,1,1.021-5.4,15.2,15.2,0,0,1,2.722-4.317,14.8,14.8,0,0,1,4.2-2.878A13.293,13.293,0,0,1,40.871,66.1,12.862,12.862,0,0,1,46.2,67.179a13.28,13.28,0,0,1,7.033,7.195,15.5,15.5,0,0,1,.907,5.276h0A16.64,16.64,0,0,1,53.235,85.047ZM48.471,79.77a9.576,9.576,0,0,0-.567-3.238,8.349,8.349,0,0,0-1.588-2.638,5.8,5.8,0,0,0-2.382-1.8,7.148,7.148,0,0,0-3.063-.719,6.5,6.5,0,0,0-3.063.719,6.793,6.793,0,0,0-2.382,1.679,8.631,8.631,0,0,0-1.475,2.638,7.809,7.809,0,0,0-.567,3.238h0a7.3,7.3,0,0,0,.567,3.118,6.563,6.563,0,0,0,1.475,2.638,5.445,5.445,0,0,0,2.5,1.8,6.287,6.287,0,0,0,2.949.719,8.209,8.209,0,0,0,3.063-.6,9.1,9.1,0,0,0,2.382-1.8A12.344,12.344,0,0,0,47.9,82.888a9.576,9.576,0,0,0,.567-3.238Z" transform="translate(25.485 -66.086)" fill="#343333"/>
        <path id="Path_68" data-name="Path 68" d="M73.569,92.124a13.527,13.527,0,0,1-6.012,1.319,12.538,12.538,0,0,1-5.331-1.079,10.736,10.736,0,0,1-4.2-2.878,14.567,14.567,0,0,1-2.722-4.2,16.9,16.9,0,0,1-.907-5.516h0a16.767,16.767,0,0,1,.907-5.4,15.2,15.2,0,0,1,2.722-4.317,14.8,14.8,0,0,1,4.2-2.878A12.757,12.757,0,0,1,67.444,66.1a12.248,12.248,0,0,1,3.063.24l2.609.6,2.155,1.2L77.313,69.7,73.8,74.137l-1.361-1.2L70.961,72.1l-1.7-.48-1.928-.24A5.858,5.858,0,0,0,64.5,72.1a5.483,5.483,0,0,0-2.269,1.8,9.288,9.288,0,0,0-1.588,2.518,10.838,10.838,0,0,0-.567,3.238h0a10.968,10.968,0,0,0,.567,3.358,10.044,10.044,0,0,0,1.588,2.638,9.147,9.147,0,0,0,2.382,1.919,8.209,8.209,0,0,0,3.063.6,8.514,8.514,0,0,0,5.218-1.679V82.77H67.331V77.734H78.22V89.246A18.4,18.4,0,0,1,73.569,92.124Z" transform="translate(29.084 -66.088)" fill="#343333"/>
        <path id="Path_69" data-name="Path 69" d="M80,92.9V66.4H98.829v5.156H85.445v5.4h11.8v5.156h-11.8v5.636H99.056V92.9Z" transform="translate(32.521 -66.026)" fill="#343333"/>
        <path id="Path_70" data-name="Path 70" d="M101.1,92.9V66.4h18.829v5.156H106.545v5.4h11.8v5.156h-11.8v5.636h13.611V92.9Z" transform="translate(35.355 -66.026)" fill="#343333"/>
        <path id="Path_71" data-name="Path 71" d="M137.292,72.216a11.5,11.5,0,0,0-2.5,2.758l-3.857-3.358a18.968,18.968,0,0,1,1.815-2.278,13.7,13.7,0,0,1,2.042-1.8,9.355,9.355,0,0,1,2.5-1.079,10.544,10.544,0,0,1,2.949-.36,11.536,11.536,0,0,1,3.63.6,8.077,8.077,0,0,1,2.722,1.679,9.6,9.6,0,0,1,1.7,2.518,11.1,11.1,0,0,1,.567,3.478,7.692,7.692,0,0,1-.454,2.878,9.966,9.966,0,0,1-1.134,2.518,18.437,18.437,0,0,1-2.042,2.278,33.995,33.995,0,0,1-2.949,2.518L138.2,87.925h10.889v5.036H130.6V88.285l8.28-7.195,2.042-1.8a8.355,8.355,0,0,0,1.361-1.559,4.172,4.172,0,0,0,.681-1.439,3.623,3.623,0,0,0-.681-4.077,3.069,3.069,0,0,0-2.382-.839A4.04,4.04,0,0,0,137.292,72.216Z" transform="translate(39.316 -66.086)" fill="#343333"/>
        <path id="Path_72" data-name="Path 72" d="M171.838,85.046a17.845,17.845,0,0,1-2.269,4.437,11.792,11.792,0,0,1-3.516,2.878A9.857,9.857,0,0,1,161.4,93.44a9.751,9.751,0,0,1-4.537-1.079,11.141,11.141,0,0,1-5.671-7.195,18.715,18.715,0,0,1,0-10.792,12.81,12.81,0,0,1,2.269-4.317,10.682,10.682,0,0,1,3.516-3,11.209,11.209,0,0,1,9.074,0,10.533,10.533,0,0,1,3.516,2.878,14.665,14.665,0,0,1,2.269,4.437,18.931,18.931,0,0,1,.794,5.276,20.577,20.577,0,0,1-.794,5.4Zm-5.218-8.634a15.076,15.076,0,0,0-1.134-2.758,4.972,4.972,0,0,0-1.815-1.679,3.71,3.71,0,0,0-2.269-.719,3.605,3.605,0,0,0-2.155.719,4.649,4.649,0,0,0-1.7,1.679,6.779,6.779,0,0,0-1.134,2.638,16.068,16.068,0,0,0-.34,3.358,15.182,15.182,0,0,0,.34,3.358,9.884,9.884,0,0,0,1.134,2.758,4.649,4.649,0,0,0,1.7,1.679,3.927,3.927,0,0,0,2.269.719,4.993,4.993,0,0,0,2.269-.6,6.311,6.311,0,0,0,1.7-1.8,13.815,13.815,0,0,0,1.134-2.638,16.07,16.07,0,0,0,.34-3.358A15.179,15.179,0,0,0,166.62,76.413Z" transform="translate(41.975 -66.086)" fill="#343333"/>
        <path id="Path_73" data-name="Path 73" d="M179.659,66.3H183.4V92.921h-5.445V72.176l-4.424,1.079L172.4,68.578Z" transform="translate(44.93 -66.046)" fill="#343333"/>
        <path id="Path_74" data-name="Path 74" d="M205.756,84.808a11.163,11.163,0,0,1-2.155,4.557,9.329,9.329,0,0,1-3.4,3,9.533,9.533,0,0,1-4.651,1.079,10.812,10.812,0,0,1-4.651-.959,14.1,14.1,0,0,1-3.63-2.158l2.949-4.437a13.273,13.273,0,0,0,2.609,1.679,7.137,7.137,0,0,0,2.836.6,4.106,4.106,0,0,0,3.516-1.679,8.56,8.56,0,0,0,1.588-4.437,5.831,5.831,0,0,1-2.155,1.319,7.673,7.673,0,0,1-2.949.6,11,11,0,0,1-3.63-.6A9.622,9.622,0,0,1,189.2,81.69a7.575,7.575,0,0,1-1.815-2.758,9.188,9.188,0,0,1-.681-3.6,10.2,10.2,0,0,1,.681-3.717,10.047,10.047,0,0,1,2.042-2.878,8.818,8.818,0,0,1,2.949-2.039,10.456,10.456,0,0,1,3.857-.6H198.5l1.928.48,1.588.959,1.475,1.2a9.233,9.233,0,0,1,2.155,3.837,14.346,14.346,0,0,1,.567,2.758,16.208,16.208,0,0,1,.227,3.478,23.769,23.769,0,0,1-.681,6Zm-6.125-12.591a3.955,3.955,0,0,0-3.176-1.2,4.486,4.486,0,0,0-3.176,1.079,4.37,4.37,0,0,0,0,5.876,4.808,4.808,0,0,0,3.289,1.079,4.486,4.486,0,0,0,3.176-1.079,4.073,4.073,0,0,0,1.134-2.878A3.685,3.685,0,0,0,199.631,72.217Z" transform="translate(46.85 -66.087)" fill="#343333"/>
      </g>
      <g id="Group_58" data-name="Group 58">
        <rect id="Rectangle_44" data-name="Rectangle 44" width="17.581" height="6.991" transform="translate(44.351 21.705)" fill="#2dc9af"/>
        <rect id="Rectangle_45" data-name="Rectangle 45" width="17.581" height="6.991" transform="translate(44.351 32.497)" fill="#2dc9af"/>
        <rect id="Rectangle_46" data-name="Rectangle 46" width="17.581" height="6.991" transform="translate(22.572 32.497)" fill="#2dc9af"/>
        <rect id="Rectangle_47" data-name="Rectangle 47" width="17.581" height="6.991" transform="translate(0 32.497)" fill="#2dc9af"/>
        <rect id="Rectangle_48" data-name="Rectangle 48" width="17.581" height="6.991" transform="translate(33.462 43.289)" fill="#2dc9af"/>
        <rect id="Rectangle_49" data-name="Rectangle 49" width="17.581" height="6.991" transform="translate(11.57 43.289)" fill="#2dc9af"/>
        <rect id="Rectangle_50" data-name="Rectangle 50" width="17.581" height="6.991" transform="translate(33.462 54.201)" fill="#2dc9af"/>
        <rect id="Rectangle_51" data-name="Rectangle 51" width="17.581" height="6.991" transform="translate(22.572 21.705)" fill="#2dc9af"/>
        <rect id="Rectangle_52" data-name="Rectangle 52" width="6.579" height="6.991" transform="translate(55.353 10.792)" fill="#2dc9af"/>
        <rect id="Rectangle_53" data-name="Rectangle 53" width="6.579" height="6.991" transform="translate(55.353)" fill="#2dc9af"/>
        <rect id="Rectangle_54" data-name="Rectangle 54" width="6.579" height="6.991" transform="translate(0 43.289)" fill="#2dc9af"/>
        <rect id="Rectangle_55" data-name="Rectangle 55" width="6.579" height="6.991" transform="translate(10.889 21.705)" fill="#2dc9af"/>
        <rect id="Rectangle_56" data-name="Rectangle 56" width="6.579" height="6.991" transform="translate(55.353 43.289)" fill="#2dc9af"/>
        <rect id="Rectangle_57" data-name="Rectangle 57" width="6.579" height="6.991" transform="translate(55.353 54.201)" fill="#2dc9af"/>
      </g>
      <g id="Group_59" data-name="Group 59" transform="translate(78.946 40.051)">
        <path id="Path_75" data-name="Path 75" d="M-14.178,100.439a8.037,8.037,0,0,0-1.839,1.814l-1.839-1.559,1.1-1.426A5.134,5.134,0,0,1-15.527,98.1l1.475-.648,1.961-.259a5.482,5.482,0,0,1,2.084.389A4.259,4.259,0,0,1-8.42,98.621a3.255,3.255,0,0,1,.98,1.559,4.487,4.487,0,0,1,.368,1.944,3.4,3.4,0,0,1-.245,1.679,4.509,4.509,0,0,1-.735,1.559,4.456,4.456,0,0,1-1.225,1.426l-1.839,1.679-3.186,2.85h7.476v2.462H-18.1v-2.2l5.392-4.8,1.349-1.3.858-1.036a7.828,7.828,0,0,0,.49-1.036,3,3,0,0,0,.123-1.036,3.361,3.361,0,0,0-.611-1.937,2.955,2.955,0,0,0-1.839-.648A2.955,2.955,0,0,0-14.178,100.439Z" transform="translate(18.1 -93.44)" fill="#343333"/>
        <path id="Path_76" data-name="Path 76" d="M5.322,111.193a4.071,4.071,0,0,1-1.349,1.559,4.191,4.191,0,0,1-1.839.907,6.758,6.758,0,0,1-2.329.389,6.293,6.293,0,0,1-2.329-.389,7.038,7.038,0,0,1-1.961-.907,3.716,3.716,0,0,1-1.225-1.559,4.462,4.462,0,0,1-.49-1.814,3.634,3.634,0,0,1,.735-2.462,5.284,5.284,0,0,1,2.084-1.559,5.858,5.858,0,0,1-1.588-1.426,3.646,3.646,0,0,1-.613-2.332,4.208,4.208,0,0,1,.368-1.679,3.98,3.98,0,0,1,1.1-1.426l1.716-.907a5.6,5.6,0,0,1,2.2-.389,5.482,5.482,0,0,1,2.084.389l1.716.907a6.62,6.62,0,0,1,1.225,1.426A4.208,4.208,0,0,1,5.2,101.6a4.733,4.733,0,0,1-.613,2.332,6.567,6.567,0,0,1-1.712,1.431,5.284,5.284,0,0,1,2.084,1.559,3.494,3.494,0,0,1,.735,2.332,4.487,4.487,0,0,1-.368,1.944Zm-2.574-3.109-.613-.777-1.1-.513H-1.542l-.98.518-.735.777a3.254,3.254,0,0,0-.245,1.036,2.114,2.114,0,0,0,.858,1.814,4.345,4.345,0,0,0,2.451.648,3.879,3.879,0,0,0,2.329-.648,2.114,2.114,0,0,0,.858-1.814,1.628,1.628,0,0,0-.245-1.036Zm-.98-7.774a2.482,2.482,0,0,0-1.961-.648,2.714,2.714,0,0,0-2.084.648,1.85,1.85,0,0,0-.735,1.559,1.981,1.981,0,0,0,.858,1.814,2.482,2.482,0,0,0,1.961.648,2.6,2.6,0,0,0,1.961-.648,2.285,2.285,0,0,0,0-3.358Z" transform="translate(20.783 -93.441)" fill="#343333"/>
        <path id="Path_77" data-name="Path 77" d="M8.461,105.215c0,.321.076.643.227.719a.877.877,0,0,0,.681.24,2.252,2.252,0,0,0,.988-.24v1.446l-.681.24-.836.161L8,107.62a1.5,1.5,0,0,1-.681-.4,1.785,1.785,0,0,1-.38-.643,2.281,2.281,0,0,1-.152-1.044v-4.1H5.8V99.99h.988V97.9H8.461v2.09h1.976v1.446H8.461Z" transform="translate(24.38 -97.097)" fill="#343333"/>
        <path id="Path_78" data-name="Path 78" d="M16.572,107.428H14.9V96.9h1.672V101l.38-.562.532-.4a1.491,1.491,0,0,1,.608-.321h.76a2.22,2.22,0,0,1,1.9.8,3.084,3.084,0,0,1,.681,2.17v4.822H19.765v-4.34a2,2,0,0,0-.454-1.366,1.331,1.331,0,0,0-1.14-.48,1.478,1.478,0,0,0-1.14.48,2,2,0,0,0-.454,1.366Z" transform="translate(22.198 -96.9)" fill="#343333"/>
        <path id="Path_79" data-name="Path 79" d="M41.221,109.709H41.1l-4.9-7.645v11.66H33.5V97.4h2.941l4.657,7.774,4.78-7.774H48.82v16.325h-2.7v-11.66Z" transform="translate(16.163 -93.38)" fill="#343333"/>
        <path id="Path_80" data-name="Path 80" d="M57.166,112.848V111.29a4.793,4.793,0,0,1-3.8,1.814l-1.588-.259-1.349-.648a2.986,2.986,0,0,1-.858-1.3,3.252,3.252,0,0,1-.368-1.559h0a3.8,3.8,0,0,1,.368-1.679,3.213,3.213,0,0,1,.98-1.3,3.929,3.929,0,0,1,1.475-.648,4.771,4.771,0,0,1,1.961-.259H55.7l1.475.389v-.389a2.671,2.671,0,0,0-.735-1.944,3.417,3.417,0,0,0-2.084-.648,3.959,3.959,0,0,0-1.839.259l-1.588.518-.735-2.332,1.961-.648a7.9,7.9,0,0,1,2.574-.259,4.357,4.357,0,0,1,3.769,1.265,4.924,4.924,0,0,1,1.378,3.918v7.256Zm.123-5.183-1.225-.389H54.589a3.4,3.4,0,0,0-2.084.518,1.86,1.86,0,0,0-.613,1.426h0a1.318,1.318,0,0,0,.613,1.3,3.3,3.3,0,0,0,1.588.518l1.225-.259.98-.518.735-.777a3.255,3.255,0,0,0,.245-1.036Z" transform="translate(19.24 -92.504)" fill="#343333"/>
        <path id="Path_81" data-name="Path 81" d="M64,112.868H61.3V100.559H64v2.721a5.807,5.807,0,0,1,1.588-2.2,4.358,4.358,0,0,1,2.574-.777v2.98h-.122a3.28,3.28,0,0,0-1.588.389,2.319,2.319,0,0,0-1.349.907A5.147,5.147,0,0,0,64.363,106,6.4,6.4,0,0,0,64,108.2Z" transform="translate(21.624 -92.524)" fill="#343333"/>
        <path id="Path_82" data-name="Path 82" d="M77.748,112.482a4.8,4.8,0,0,1-2.822.651,6.02,6.02,0,0,1-5.637-3.886,6.408,6.408,0,0,1,0-4.924,5.758,5.758,0,0,1,1.225-2.073,6.988,6.988,0,0,1,1.961-1.426,5.26,5.26,0,0,1,2.451-.522,5.5,5.5,0,0,1,4.657,2.073L78,104.319l-1.349-1.166a3.743,3.743,0,0,0-1.716-.389l-1.349.259a2.723,2.723,0,0,0-1.1.907l-.735,1.3a4.9,4.9,0,0,0-.245,1.426,6.957,6.957,0,0,0,.245,1.679,9.126,9.126,0,0,0,.735,1.166l1.1.907,1.475.259a3.744,3.744,0,0,0,1.716-.389l1.349-1.166,1.588,1.679a5.964,5.964,0,0,1-1.961,1.7Z" transform="translate(23.046 -92.527)" fill="#343333"/>
        <path id="Path_83" data-name="Path 83" d="M83.2,113.873H80.5V96.9h2.7v6.608l.735-.907c.122-.259.49-.389.735-.648l.98-.518h1.225a3.578,3.578,0,0,1,3.063,1.3,4.974,4.974,0,0,1,1.1,3.5V114H88.344v-7a3.913,3.913,0,0,0-.613-2.2,2.383,2.383,0,0,0-1.839-.777,2.5,2.5,0,0,0-1.961.777,3.22,3.22,0,0,0-.735,2.2Z" transform="translate(25.326 -93.529)" fill="#343333"/>
        <path id="Path_84" data-name="Path 84" d="M92.2,106.25V103.4h6.619v2.85Z" transform="translate(31.233 -91.439)" fill="#343333"/>
        <path id="Path_85" data-name="Path 85" d="M100.957,99.862V97.4h10.295v2.2l-4.412,4.665a3.744,3.744,0,0,1,1.716.389,4.242,4.242,0,0,1,1.475.907,2.8,2.8,0,0,1,1.1,1.3,4.486,4.486,0,0,1,.368,1.944,5.58,5.58,0,0,1-.368,2.073,8.254,8.254,0,0,1-1.225,1.679,4.482,4.482,0,0,1-1.716,1.036,5.6,5.6,0,0,1-2.206.389,7.137,7.137,0,0,1-3.431-.777,6.573,6.573,0,0,1-2.451-2.073l1.839-1.814a9.8,9.8,0,0,0,1.839,1.559,4.446,4.446,0,0,0,2.329.518,2.955,2.955,0,0,0,1.839-.648,2.114,2.114,0,0,0,.858-1.814,2.5,2.5,0,0,0-.98-1.944,5.271,5.271,0,0,0-2.7-.648H103.9l-.49-1.814,4.29-4.665Z" transform="translate(41.067 -93.38)" fill="#343333"/>
        <path id="Path_86" data-name="Path 86" d="M115.968,97.3h1.958v16.455h-2.7V100.28l-2.819.777-.613-2.332Z" transform="translate(43.426 -93.41)" fill="#343333"/>
        <path id="Path_87" data-name="Path 87" d="M125.954,107.385a1.887,1.887,0,0,1-.567.776,2.16,2.16,0,0,1-.979.518l-1.142.173a4.043,4.043,0,0,1-1.713-.345,5.531,5.531,0,0,1-1.549-.862l.734-1.294,1.306.776,1.306.259a1.565,1.565,0,0,0,.9-.259,1.057,1.057,0,0,0,.327-.689h0a.942.942,0,0,0-.163-.432l-.408-.259-.567-.259-.652-.173-.816-.345-.816-.432a2.3,2.3,0,0,1-.567-.69,1.8,1.8,0,0,1-.245-.949h0a2.436,2.436,0,0,1,.245-1.035l.567-.776.9-.518,1.061-.173a4.886,4.886,0,0,1,1.549.259l1.387.689-.734,1.38-1.142-.6a2.481,2.481,0,0,0-1.061-.173l-.816.173a.874.874,0,0,0-.327.6h0a.705.705,0,0,0,.163.345l.408.259.567.259.652.259.9.345.734.432a2.3,2.3,0,0,1,.567.69,1.626,1.626,0,0,1,.245.949h0A2.529,2.529,0,0,1,125.954,107.385Z" transform="translate(45.024 -98.244)" fill="#343333"/>
        <path id="Path_88" data-name="Path 88" d="M132.473,105.748c0,.345.082.689.245.776a.946.946,0,0,0,.734.259,2.725,2.725,0,0,0,1.142-.259v1.553l-.734.259-.9.173-.9-.173a1.048,1.048,0,0,1-.734-.432,2.064,2.064,0,0,1-.49-.689,4.634,4.634,0,0,1-.163-1.121v-4.4H129.7v-1.553h.979V97.9h1.794v2.242h2.121V101.7h-2.121Z" transform="translate(43.061 -97.9)" fill="#343333"/>
        <path id="Path_89" data-name="Path 89" d="M152.9,109.709h0l-4.9-7.645v11.66h-2.7V97.4h2.941l4.659,7.774,4.78-7.774h2.941v16.325H157.8v-11.66Z" transform="translate(39.023 -93.38)" fill="#343333"/>
        <path id="Path_90" data-name="Path 90" d="M168.968,112.847v-1.559l-1.588,1.3a3.982,3.982,0,0,1-2.206.518l-1.588-.259a3.347,3.347,0,0,1-1.349-.648,5.016,5.016,0,0,1-.98-1.3,3.132,3.132,0,0,1-.245-1.559h0a3.679,3.679,0,0,1,.245-1.679,3.566,3.566,0,0,1,1.1-1.3,3.929,3.929,0,0,1,1.475-.648,4.54,4.54,0,0,1,1.839-.259h1.839l1.475.389v-.389a2.671,2.671,0,0,0-.735-1.944,3.53,3.53,0,0,0-2.206-.648,3.729,3.729,0,0,0-1.716.259l-1.588.518-.735-2.332,1.961-.648a7.207,7.207,0,0,1,2.451-.259,4.965,4.965,0,0,1,3.922,1.3,5.374,5.374,0,0,1,1.225,3.886v7.256Zm0-5.183-1.225-.389h-1.475a2.935,2.935,0,0,0-1.961.518,1.7,1.7,0,0,0-.735,1.426h0a1.439,1.439,0,0,0,.735,1.3,2.947,2.947,0,0,0,1.588.518l1.225-.259.98-.518.613-.777a1.628,1.628,0,0,0,.245-1.036Z" transform="translate(41.193 -92.502)" fill="#343333"/>
        <path id="Path_91" data-name="Path 91" d="M175.8,112.869h-2.7V100.56h2.7v2.721a4.178,4.178,0,0,1,4.167-2.98v2.98h-.122a3.743,3.743,0,0,0-1.716.389,2.089,2.089,0,0,0-1.226.907,5.36,5.36,0,0,0-.858,1.426,12.022,12.022,0,0,0-.245,2.2Z" transform="translate(43.925 -92.525)" fill="#343333"/>
        <path id="Path_92" data-name="Path 92" d="M189.424,112.481a4.568,4.568,0,0,1-2.819.648,4.8,4.8,0,0,1-2.329-.518,5.358,5.358,0,0,1-1.961-1.3,7.413,7.413,0,0,1-1.349-2.073,8.472,8.472,0,0,1,0-4.924,6.693,6.693,0,0,1,3.309-3.5,4.91,4.91,0,0,1,2.45-.519,5.6,5.6,0,0,1,2.7.518,7.528,7.528,0,0,1,1.961,1.559l-1.708,1.94a5.964,5.964,0,0,0-1.349-1.166,3.043,3.043,0,0,0-1.716-.389l-1.349.259a3.373,3.373,0,0,0-.98.907,2.754,2.754,0,0,0-.735,1.3,4.9,4.9,0,0,0-.245,1.426,6.958,6.958,0,0,0,.245,1.679,2.344,2.344,0,0,0,.735,1.166,2.723,2.723,0,0,0,1.1.907l1.475.259a3.28,3.28,0,0,0,1.588-.389,3.851,3.851,0,0,0,1.349-1.166l1.716,1.679a5.314,5.314,0,0,1-2.084,1.679Z" transform="translate(45.616 -92.525)" fill="#343333"/>
        <path id="Path_93" data-name="Path 93" d="M195,113.873h-2.7V96.9H195v6.608l.613-.907.858-.648.98-.518h1.225a3.578,3.578,0,0,1,3.063,1.3,4.975,4.975,0,0,1,1.1,3.5V114h-2.7v-7a3.913,3.913,0,0,0-.612-2.2,2.5,2.5,0,0,0-1.961-.777,2.383,2.383,0,0,0-1.839.777,3.22,3.22,0,0,0-.735,2.2Z" transform="translate(48.255 -93.529)" fill="#343333"/>
      </g>
    </g>
    <g id="Group_2" data-name="Group 2" transform="translate(19.296 -39.9)">
      <path id="Path_3" data-name="Path 3" d="M98.25,81.94a13.309,13.309,0,0,1,.191,26.617l6.144-11.095h4.184l2.265-4.091H100.517l-2.264,4.091h3.925L96.127,108.39A13.312,13.312,0,0,1,94.4,82.507L88.382,93.371h0l-2.264,4.091H96.631L98.9,93.371H90.788l6.3-11.38c.382-.033.768-.051,1.159-.051Zm0-1.94A15.25,15.25,0,1,1,83,95.25,15.252,15.252,0,0,1,98.25,80Z" transform="translate(0)" fill="#003a72" fill-rule="evenodd"/>
      <path id="Path_4" data-name="Path 4" d="M255.647,139.719h5.719l.34-1.527h-3.676l1.476-6.642h-2.043l-1.817,8.169Zm12.262-2.121.2,2.121h2.143l-1.121-8.169H266.5l-4.657,8.169h2.174l1.135-2.121Zm-2.157-1.333.951-1.757c.256-.473.525-1.1.766-1.6h.029c.043.5.1,1.151.142,1.6l.185,1.757Zm5.28,3.454h2.029l.71-3.224h.625c.809,0,1.206.3,1.291,1.3a11.46,11.46,0,0,0,.284,1.927h2.1a12.194,12.194,0,0,1-.369-2.315c-.1-.739-.341-1.285-.908-1.491v-.048c1.22-.339,2.171-1.091,2.171-2.3a1.746,1.746,0,0,0-1.064-1.6,5.64,5.64,0,0,0-2.512-.473,13.663,13.663,0,0,0-2.555.218l-1.8,8.011Zm3.548-6.787a3.9,3.9,0,0,1,.794-.061c.809,0,1.462.291,1.462.945,0,.8-.809,1.37-1.916,1.37h-.851l.511-2.254Zm4.2,6.327a5.671,5.671,0,0,0,2.739.6c2.129,0,3.889-.947,3.889-2.765,0-.97-.738-1.636-1.9-2.157-.809-.388-1.391-.679-1.391-1.151,0-.448.5-.86,1.447-.86a4.325,4.325,0,0,1,1.788.364l.639-1.442a4.951,4.951,0,0,0-2.257-.424c-2.086,0-3.775,1.006-3.775,2.654,0,1.067.965,1.7,1.987,2.169.88.388,1.291.691,1.291,1.151,0,.643-.724.958-1.519.958a5.092,5.092,0,0,1-2.257-.521l-.681,1.43Zm13.795-4.472h-3.406l.4-1.745h3.6l.341-1.491h-5.662l-1.816,8.169H291.9l.326-1.491h-3.817l.44-1.976h3.406l.326-1.466Zm2.442,4.933.624-2.86c.284-1.285.511-2.436.624-3.236l.042-.012a22.78,22.78,0,0,0,.937,2.848l1.334,3.26H300.7l1.8-8.169h-1.9l-.653,2.969a17.054,17.054,0,0,0-.44,2.933h-.043a26.82,26.82,0,0,0-.865-2.787l-1.263-3.115h-2.4l-1.816,8.169Zm18.293,0a18.393,18.393,0,0,1-1.391-1.527,7.44,7.44,0,0,0,2.256-3.175h-1.873a6.068,6.068,0,0,1-1.32,2.072c-.383-.448-.908-1.054-1.277-1.563v-.036c1.533-.606,2.37-1.309,2.37-2.254,0-1.091-.993-1.818-2.426-1.818-1.76,0-2.994,1.018-2.994,2.339a2.416,2.416,0,0,0,.525,1.382l-.014.036c-1.234.485-2.3,1.272-2.3,2.521,0,1.321,1.178,2.159,2.952,2.159a4.529,4.529,0,0,0,2.554-.693c.185.194.326.376.525.558Zm-4.924-1.176c-.951,0-1.448-.521-1.448-1.151a1.632,1.632,0,0,1,.936-1.285c.554.739,1.206,1.5,1.689,2.048a1.838,1.838,0,0,1-1.164.388Zm1.093-6a.69.69,0,0,1,.781.7c0,.606-.61,1.054-1.349,1.345a1.558,1.558,0,0,1-.425-1.006,1,1,0,0,1,.979-1.042Zm9,7.175h2.043l1.462-6.642h2.554l.34-1.527h-7.11l-.355,1.527h2.526l-1.462,6.642Zm10.914-8.3a5.506,5.506,0,0,0-3.491,1.163,5.041,5.041,0,0,0-1.76,3.866c0,1.9,1.391,3.408,3.874,3.408a5.451,5.451,0,0,0,3.533-1.178,5.042,5.042,0,0,0,1.7-3.854c0-1.951-1.334-3.406-3.86-3.406Zm-.241,1.454a1.768,1.768,0,0,1,1.93,2,4.246,4.246,0,0,1-1.164,2.933,2.541,2.541,0,0,1-1.6.594,1.828,1.828,0,0,1-2-2.012,4.082,4.082,0,0,1,1.192-2.9,2.523,2.523,0,0,1,1.646-.618Zm6.1-1.321-1.008,4.557a5.5,5.5,0,0,0-.142,1.139c0,1.746,1.206,2.62,3.179,2.608,2.6,0,3.874-1.19,4.428-3.662l1.036-4.642h-2.043l-1.05,4.715c-.34,1.515-1.05,2.121-2.114,2.121-.923,0-1.391-.509-1.391-1.164a4,4,0,0,1,.1-.97l1.05-4.7Zm7.281,8.072a15.064,15.064,0,0,0,2.413.16,7.494,7.494,0,0,0,3.6-.669,2.247,2.247,0,0,0,1.306-1.939,1.818,1.818,0,0,0-1.5-1.782v-.036c1.036-.254,1.93-.909,1.93-1.939a1.657,1.657,0,0,0-1.107-1.491,5.048,5.048,0,0,0-2.37-.436,16.249,16.249,0,0,0-2.512.194l-1.76,7.939Zm3.519-6.715a3.991,3.991,0,0,1,.795-.06c.781,0,1.348.254,1.348.848,0,.691-.766,1.1-1.887,1.1h-.681l.426-1.891Zm-.738,3.163h.638c.951,0,1.746.242,1.746,1.054,0,.909-1.008,1.285-2.114,1.285a7.629,7.629,0,0,1-.781-.036l.511-2.3Zm5.209,3.648h2.029l.709-3.224h.624c.809,0,1.206.3,1.291,1.3a11.434,11.434,0,0,0,.284,1.927h2.1a12.221,12.221,0,0,1-.369-2.315c-.1-.739-.341-1.285-.908-1.491v-.048c1.22-.339,2.171-1.091,2.171-2.3a1.746,1.746,0,0,0-1.064-1.6,5.641,5.641,0,0,0-2.512-.473,13.663,13.663,0,0,0-2.555.218l-1.8,8.011Zm3.548-6.787a3.893,3.893,0,0,1,.794-.061c.809,0,1.462.291,1.462.945,0,.8-.809,1.37-1.916,1.37h-.852l.511-2.254Zm10.134-1.515a5.5,5.5,0,0,0-3.491,1.163,5.041,5.041,0,0,0-1.76,3.866c0,1.9,1.391,3.408,3.874,3.408a5.451,5.451,0,0,0,3.533-1.178,5.042,5.042,0,0,0,1.7-3.854c0-1.951-1.334-3.406-3.86-3.406Zm-.241,1.454a1.768,1.768,0,0,1,1.93,2,4.246,4.246,0,0,1-1.164,2.933,2.541,2.541,0,0,1-1.6.594,1.828,1.828,0,0,1-2-2.012,4.082,4.082,0,0,1,1.192-2.9,2.523,2.523,0,0,1,1.646-.618Z" transform="translate(-135.607 -40.386)" fill="#003a72"/>
    </g>
  </g>
</svg>
